<?xml version="1.0" encoding="UTF-8"?>
<svg width="800" height="200" xmlns="http://www.w3.org/2000/svg">
  <rect width="800" height="200" fill="#1a1a1a"/>
  <rect x="0" y="10" width="100" height="100" fill="#fafafa"/>
  <text x="50" y="70" font-family="monospace" font-size="11" fill="white" text-anchor="middle">Black</text>
  <text x="50" y="85" font-family="monospace" font-size="9" fill="white" text-anchor="middle">#fafafa</text>
  <rect x="100" y="10" width="100" height="100" fill="#ff3333"/>
  <text x="150" y="70" font-family="monospace" font-size="11" fill="black" text-anchor="middle">Red</text>
  <text x="150" y="85" font-family="monospace" font-size="9" fill="black" text-anchor="middle">#ff3333</text>
  <rect x="200" y="10" width="100" height="100" fill="#86b300"/>
  <text x="250" y="70" font-family="monospace" font-size="11" fill="white" text-anchor="middle">Green</text>
  <text x="250" y="85" font-family="monospace" font-size="9" fill="white" text-anchor="middle">#86b300</text>
  <rect x="300" y="10" width="100" height="100" fill="#c29702"/>
  <text x="350" y="70" font-family="monospace" font-size="11" fill="white" text-anchor="middle">Yellow</text>
  <text x="350" y="85" font-family="monospace" font-size="9" fill="white" text-anchor="middle">#c29702</text>
  <rect x="400" y="10" width="100" height="100" fill="#0071d1"/>
  <text x="450" y="70" font-family="monospace" font-size="11" fill="black" text-anchor="middle">Blue</text>
  <text x="450" y="85" font-family="monospace" font-size="9" fill="black" text-anchor="middle">#0071d1</text>
  <rect x="500" y="10" width="100" height="100" fill="#7a51d8"/>
  <text x="550" y="70" font-family="monospace" font-size="11" fill="black" text-anchor="middle">Magenta</text>
  <text x="550" y="85" font-family="monospace" font-size="9" fill="black" text-anchor="middle">#7a51d8</text>
  <rect x="600" y="10" width="100" height="100" fill="#2b7ea3"/>
  <text x="650" y="70" font-family="monospace" font-size="11" fill="black" text-anchor="middle">Cyan</text>
  <text x="650" y="85" font-family="monospace" font-size="9" fill="black" text-anchor="middle">#2b7ea3</text>
  <rect x="700" y="10" width="100" height="100" fill="#5c5c5c"/>
  <text x="750" y="70" font-family="monospace" font-size="11" fill="black" text-anchor="middle">White</text>
  <text x="750" y="85" font-family="monospace" font-size="9" fill="black" text-anchor="middle">#5c5c5c</text>
  <rect x="0" y="110" width="100" height="100" fill="#8a8a8a"/>
  <text x="50" y="170" font-family="monospace" font-size="11" fill="white" text-anchor="middle">Bright Black</text>
  <text x="50" y="185" font-family="monospace" font-size="9" fill="white" text-anchor="middle">#8a8a8a</text>
  <rect x="100" y="110" width="100" height="100" fill="#ff5555"/>
  <text x="150" y="170" font-family="monospace" font-size="11" fill="black" text-anchor="middle">Bright Red</text>
  <text x="150" y="185" font-family="monospace" font-size="9" fill="black" text-anchor="middle">#ff5555</text>
  <rect x="200" y="110" width="100" height="100" fill="#86b300"/>
  <text x="250" y="170" font-family="monospace" font-size="11" fill="white" text-anchor="middle">Bright Green</text>
  <text x="250" y="185" font-family="monospace" font-size="9" fill="white" text-anchor="middle">#86b300</text>
  <rect x="300" y="110" width="100" height="100" fill="#c29702"/>
  <text x="350" y="170" font-family="monospace" font-size="11" fill="white" text-anchor="middle">Bright Yellow</text>
  <text x="350" y="185" font-family="monospace" font-size="9" fill="white" text-anchor="middle">#c29702</text>
  <rect x="400" y="110" width="100" height="100" fill="#0071d1"/>
  <text x="450" y="170" font-family="monospace" font-size="11" fill="black" text-anchor="middle">Bright Blue</text>
  <text x="450" y="185" font-family="monospace" font-size="9" fill="black" text-anchor="middle">#0071d1</text>
  <rect x="500" y="110" width="100" height="100" fill="#7a51d8"/>
  <text x="550" y="170" font-family="monospace" font-size="11" fill="black" text-anchor="middle">Bright Magenta</text>
  <text x="550" y="185" font-family="monospace" font-size="9" fill="black" text-anchor="middle">#7a51d8</text>
  <rect x="600" y="110" width="100" height="100" fill="#2b8282"/>
  <text x="650" y="170" font-family="monospace" font-size="11" fill="black" text-anchor="middle">Bright Cyan</text>
  <text x="650" y="185" font-family="monospace" font-size="9" fill="black" text-anchor="middle">#2b8282</text>
  <rect x="700" y="110" width="100" height="100" fill="#3d3d3d"/>
  <text x="750" y="170" font-family="monospace" font-size="11" fill="black" text-anchor="middle">Bright White</text>
  <text x="750" y="185" font-family="monospace" font-size="9" fill="black" text-anchor="middle">#3d3d3d</text>
</svg>
